####
#
# OBJ File Generated by Meshlab
#
####
# Object arm_link5.obj
#
# Vertices: 330
# Faces: 572
#
####
vn 2.9670586567688768 2.9412231586355873 1.0695027625479794
v 0.0225025471299887 0.0267839711159468 -0.0307605732232332
vn 2.9670583534709674 -3.0819264649806728 0.5443936794866951
v 0.0225025396794081 -0.0280657485127449 -0.0355424769222736
vn 2.9670622770698265 3.0822570328968308 0.5425169537887096
v 0.0225025471299887 0.0280682872980833 -0.0355595722794533
vn 2.9670606894910678 -3.1296383576173739 0.0009526968602383
v 0.0225025396794081 -0.0285002309828997 -0.0404913201928139
vn 2.9670587159456399 3.1296372242361610 -0.0009528444228288
v 0.0225025471299887 0.0284997634589672 -0.0405086763203144
vn 2.9670582070269611 -3.0822573689553261 -0.5425169241252928
v 0.0225025396794081 -0.0280687622725964 -0.0454404242336750
vn 2.9670618603570809 3.0819259536973167 -0.5443942727478246
v 0.0225025471299887 0.0280652735382318 -0.0454575195908546
vn 2.9670593063101860 -2.7108226904091035 -1.5639941850912007
v 0.0225025396794081 -0.0246862974017859 -0.0547424778342247
vn 2.9670617610168457 -2.3980561752377727 -2.0109598673698006
v 0.0225025415420532 -0.0218380764126778 -0.0588127933442593
vn 2.9670591428834969 2.9405712465314031 -1.0712938746254659
v 0.0225025471299887 0.0267780348658562 -0.0502557307481766
vn 2.9670573167193224 -2.0124248367747390 -2.3968272208401080
v 0.0225025415420532 -0.0183263309299946 -0.0623266920447350
vn 2.9670585836954499 0.5443982316826353 3.0819247825993150
v 0.0225025434046984 0.0049572857096791 -0.0124344844371080
vn 2.9670583225343030 0.0009521994338450 3.1296386480327043
v 0.0225025415420532 0.0000084441162471 -0.0119999945163727
vn 2.9670580841992482 -0.5425230399246832 3.0822581555803659
v 0.0225025396794081 -0.0049406611360610 -0.0124314697459340
vn 2.9670628069758256 0.0000002964633357 -0.0000002489163203
v 0.0225025396794081 -0.0097396513447165 -0.0137158008292317
vn 2.9670598999828086 -2.9412236174176130 -1.0695046780854263
v 0.0225025396794081 -0.0267844386398792 -0.0502394214272499
vn 2.9670587999315363 -2.9405711186144092 1.0712957476280183
v 0.0225025396794081 -0.0267785042524338 -0.0307442639023066
vn 2.9670598560828951 -2.7098728083040413 1.5656472444403211
v 0.0225025396794081 -0.0246776193380356 -0.0262424889951944
vn 2.9670619437394383 -2.3968302063728895 2.0124197660374410
v 0.0225025415420532 -0.0218269191682339 -0.0221739076077938
vn 2.9670588818079651 -1.5656435257148980 -2.7098709255336360
v 0.0225025415420532 -0.0142577514052391 -0.0651773884892464
vn 2.9670594376067765 0.0000001854558333 -0.0000016966770855
v 0.0225025396794081 -0.0097559606656432 -0.0672782734036446
vn 2.9670625632700691 -0.5443965433874052 -3.0819278366387346
v 0.0225025396794081 -0.0049577536992729 -0.0685655102133751
vn 2.9670606446659646 2.7108209242645347 1.5639948923483895
v 0.0225025471299887 0.0246858280152082 -0.0262575186789036
vn 2.9670616383378388 2.3980551548461566 2.0109621346856792
v 0.0225025452673435 0.0218376088887453 -0.0221872050315142
vn 2.9670575085313251 2.0124216782101705 2.3968287812779399
v 0.0225025452673435 0.0183258559554815 -0.0186733044683933
vn 2.9670605862924835 -1.5639882078003682 2.7108234248113376
v 0.0225025415420532 -0.0142427207902074 -0.0158139429986477
vn 2.9670554731287648 -2.0109615109311583 2.3980532808708808
v 0.0225025415420532 -0.0183130353689194 -0.0186621490865946
vn 2.9670566412502373 -0.0009549350519325 -3.1296366613256268
v 0.0225025415420532 -0.0000089122595455 -0.0690000057220459
vn 2.9670616126258960 0.5425182547742071 -3.0822582751990235
v 0.0225025415420532 0.0049401931464672 -0.0685685276985168
vn 2.9670604226121471 2.7098675384586262 -1.5656445052583345
v 0.0225025471299887 0.0246771499514580 -0.0547575093805790
vn 2.9670598990129506 1.0695005296298987 -2.9412233503330607
v 0.0225025434046984 0.0097391828894615 -0.0672842115163803
vn 2.9670617136756792 2.3968313314731748 -2.0124234913517287
v 0.0225025452673435 0.0218264516443014 -0.0588260889053345
vn 2.9670583898556844 1.5639909286334830 -2.7108184628466203
v 0.0225025452673435 0.0142422523349524 -0.0651860684156418
vn 2.9670598265131591 2.0109648431212173 -2.3980521148081921
v 0.0225025452673435 0.0183125603944063 -0.0623378492891788
vn 2.9670605030232293 1.5656409049891811 2.7098707228719618
v 0.0225025452673435 0.0142572838813066 -0.0158226210623980
vn 2.9670626137132881 1.0712960449055007 2.9405722539986652
v 0.0225025434046984 0.0097554922103882 -0.0137217361479998
vn -2.9670575729820832 3.1296381374314350 -0.0009528455563769
v -0.0284999925643206 0.0284997727721930 -0.0405086763203144
vn -2.9670614616104349 3.0822580926965766 0.5425165784360166
v -0.0284999925643206 0.0280682966113091 -0.0355595722794533
vn -2.9670570575839537 2.9412242161745432 1.0695025388186805
v -0.0284999925643206 0.0267839822918177 -0.0307605732232332
vn -2.9670591935548400 2.7108223584152831 1.5639952310873775
v -0.0284999925643206 0.0246858391910791 -0.0262575186789036
vn -2.9670612527860469 2.3980556717526254 2.0109608412592364
v -0.0284999944269657 0.0218376182019711 -0.0221872050315142
vn -2.9670555702648169 2.0124214749869389 2.3968300108885456
v -0.0284999944269657 0.0183258671313524 -0.0186733044683933
vn -2.9670617717767374 1.5656419139108460 2.7098719456014084
v -0.0284999944269657 0.0142572866752744 -0.0158226210623980
vn -2.9670611795000332 1.0712975163671883 2.9405700445392928
v -0.0284999962896109 0.0097555033862591 -0.0137217361479998
vn -2.9670588653215408 0.5443986059843404 3.0819273982117519
v -0.0284999962896109 0.0049572889693081 -0.0124344844371080
vn -2.9670583224352161 0.0009541763852571 3.1296365890789790
v -0.0284999981522560 0.0000084472158051 -0.0119999945163727
vn -2.9670582902815323 -0.5425198771402130 3.0822495544430475
v -0.0285000000149012 -0.0049406578764319 -0.0124314697459340
vn -2.9670619728789975 -1.0695066685833137 2.9412250637489050
v -0.0285000000149012 -0.0097396476194263 -0.0137157998979092
vn -0.0000001283598204 -1.0695056473597691 2.9412220104922686
v 0.0225025434046984 -0.0097396513447165 -0.0137158008292317
vn -2.9670617427488284 -1.5639900377428075 2.7108230114631606
v -0.0285000018775463 -0.0142427105456591 -0.0158139429986477
vn -2.9670575814559017 -2.0109599158529781 2.3980544067029173
v -0.0285000018775463 -0.0183130241930485 -0.0186621490865946
vn -2.9670607208433322 -2.3968297007058759 2.0124225497888704
v -0.0285000018775463 -0.0218269173055887 -0.0221739076077938
vn -2.9670605149381268 -2.7098678262921960 1.5656449974175317
v -0.0285000037401915 -0.0246776156127453 -0.0262424889951944
vn -2.9670579888969937 -2.9405709278258012 1.0712934547790687
v -0.0285000037401915 -0.0267785005271435 -0.0307442639023066
vn -2.9670622242653080 -3.0819258775612735 0.5443937133686240
v -0.0285000037401915 -0.0280657373368740 -0.0355424769222736
vn -2.9670585875131295 -3.1296370225767953 0.0009526954684999
v -0.0285000037401915 -0.0285002272576094 -0.0404913201928139
vn -2.9670623884382072 -3.0822569273690164 -0.5425164186662305
v -0.0285000037401915 -0.0280687510967255 -0.0454404242336750
vn -2.9670582727371948 -2.9412230546423319 -1.0695022203955831
v -0.0285000037401915 -0.0267844367772341 -0.0502394214272499
vn -2.9670599933869819 -2.7108208582979101 -1.5639944371188979
v -0.0285000037401915 -0.0246862936764956 -0.0547424778342247
vn -2.9670614299301712 -2.3980555203582159 -2.0109628601765701
v -0.0285000018775463 -0.0218380726873875 -0.0588127933442593
vn -2.9670586409370996 -2.0124229208981608 -2.3968271857045367
v -0.0285000018775463 -0.0183263216167688 -0.0623266920447350
vn -2.9670601460961277 -1.5656430598547579 -2.7098683993788941
v -0.0285000018775463 -0.0142577411606908 -0.0651773884892464
vn -2.9670589530986762 -1.0712930517631198 -2.9405743916833647
v -0.0285000000149012 -0.0097559578716755 -0.0672782734036446
vn -0.0000000586863888 -1.0712919090234747 -2.9405713780823506
v 0.0225025434046984 -0.0097559606656432 -0.0672782734036446
vn -2.9670626183067368 -0.5443953047450792 -3.0819240135972921
v -0.0285000000149012 -0.0049577509053051 -0.0685655102133751
vn -2.9670566413911059 -0.0009535489563281 -3.1296441326656481
v -0.0284999981522560 -0.0000089091599875 -0.0690000057220459
vn -2.9670618898287078 0.5425185135980948 -3.0822565873378660
v -0.0284999981522560 0.0049401959404349 -0.0685685276985168
vn -2.9670586626241509 1.0695029573932437 -2.9412233139712476
v -0.0284999962896109 0.0097391931340098 -0.0672842115163803
vn -2.9670591883778639 1.5639944534737247 -2.7108227312346345
v -0.0284999944269657 0.0142422560602427 -0.0651860684156418
vn -2.9670587667743922 2.0109642213515855 -2.3980533500188965
v -0.0284999944269657 0.0183125697076321 -0.0623378492891788
vn -2.9670604362764594 2.3968302525055587 -2.0124210680961774
v -0.0284999944269657 0.0218264628201723 -0.0588260889053345
vn -2.9670592350187324 2.7098698236205276 -1.5656450798965387
v -0.0284999925643206 0.0246771611273289 -0.0547575093805790
vn -2.9670575440345379 2.9405724100341368 -1.0712935703372202
v -0.0284999925643206 0.0267780460417271 -0.0502557307481766
vn -2.9670610449682959 3.0819270121327205 -0.5443938969355883
v -0.0284999925643206 0.0280652828514576 -0.0454575195908546
vn -5.2752547380310126 2.2997253957566421 0.0776255694372724
v 0.0225000046193600 0.0282836575061083 -0.0395452827215195
vn -5.2752533853229604 2.2805206532791451 -0.3065842392048395
v 0.0225000046193600 0.0280474498867989 -0.0442705973982811
vn -5.4873186632832134 -1.7540973556498289 1.1137613576303464
v 0.0224999971687794 -0.0179247483611107 -0.0182986129075289
vn -4.3934335792363814 1.1107212563578279 0.0000000605087830
v 0.0225000027567148 0.0171180125325918 -0.0155170876532793
vn -5.4939743556198950 1.9882295300740629 0.5765489362045739
v 0.0225000027567148 0.0173237565904856 -0.0169653315097094
vn -5.4281467256525238 -2.1462440509830785 0.1463438744419486
v 0.0224999971687794 -0.0171180181205273 -0.0155166741460562
vn -5.4904131416290998 -1.9918613728422332 0.5787637570352510
v 0.0224999971687794 -0.0173237714916468 -0.0169649515300989
vn -5.2752550459020924 2.1975749777893396 -0.6822209480272087
v 0.0225000046193600 0.0270273275673389 -0.0488905236124992
vn -5.2752688025156917 2.0531983492300134 -1.0387873662259657
v 0.0225000046193600 0.0252518001943827 -0.0532759428024292
vn -5.3835232068408700 -1.6368014989132980 1.4703982715531343
v 0.0224999971687794 -0.0188537631183863 -0.0193946827203035
vn -5.2527602682250398 2.3075192944377547 0.2380606960082656
v 0.0225000027567148 0.0171180125325918 -0.0070000011473894
vn -5.2527587132283866 0.2380640562290999 2.3075204594024976
v 0.0225000027567148 0.0163180120289326 -0.0061999987810850
vn -3.4213075413724905 0.0000005575761406 0.0000004015420054
v 0.0225000027567148 0.0179247092455626 -0.0182989742606878
vn -4.3549228761945571 0.8212482298653845 0.8002650575175031
v 0.0225000027567148 0.0188536848872900 -0.0193950328975916
vn -5.2831591778059961 1.7612133450267944 1.4706885312680646
v 0.0225000046193600 0.0215854980051517 -0.0221984665840864
vn -5.2752639193859165 1.9784791956244896 1.1748806701827139
v 0.0225000046193600 0.0243327990174294 -0.0260503124445677
vn -5.2752571627201528 2.1465660342741826 0.8288588874008566
v 0.0225000046193600 0.0264000073075294 -0.0303060207515955
vn -5.2752521949330511 2.2546570671875958 0.4596686129189974
v 0.0225000046193600 0.0277293454855680 -0.0348466485738754
vn -5.2752624923452549 -0.9044801325123066 -2.1158081617314388
v 0.0224999990314245 -0.0111242877319455 -0.0665220171213150
vn -5.2752539371892242 -1.2443267303875520 -1.9355661441633421
v 0.0224999990314245 -0.0153039880096912 -0.0643051490187645
vn -5.2752548243239241 -1.7974177172317103 1.4366802010826318
v 0.0224999971687794 -0.0221063457429409 -0.0228305403143167
vn -5.2527613026189490 -2.3075181730822472 0.2380590075021266
v 0.0224999971687794 -0.0171180181205273 -0.0070000011473894
vn -5.2527594479793134 -0.2380616362457582 2.3075192349330043
v 0.0224999971687794 -0.0163180176168680 -0.0061999987810850
vn -5.2752752413031452 1.8514437293995012 -1.3663211131485615
v 0.0225000046193600 0.0227704923599958 -0.0573042854666710
vn -5.2895246767364350 1.6108090353529729 -1.6263662390292537
v 0.0225000027567148 0.0196527577936649 -0.0608629584312439
vn -5.3053901275842055 1.2357657900279837 -1.9101362220891056
v 0.0225000027567148 0.0159857328981161 -0.0638524964451790
vn -5.1424886747608962 0.9159911159896368 2.2113940093665718
v 0.0225000027567148 0.0166241582483053 -0.0062608961015940
vn -5.1425012378179193 1.6925254180654357 1.6925165930511474
v 0.0225000027567148 0.0168836973607540 -0.0064343158155680
vn -5.1424913039298001 2.2113906241076005 0.9159925500358923
v 0.0225000027567148 0.0170571152120829 -0.0066938530653715
vn -5.2752457797321188 0.9653121864333316 -2.0887733813747369
v 0.0225000027567148 0.0118719087913632 -0.0661893412470818
vn -5.2752644155280253 0.6038373381887152 -2.2203824182281018
v 0.0225000008940697 0.0074262651614845 -0.0678081884980202
vn -5.2938996719362237 0.2645134073300363 -2.2701090128305523
v 0.0225000008940697 0.0027730565052480 -0.0686637908220291
vn -5.3201401347934274 0.0166659144860465 -2.2622776790654573
v 0.0225000008940697 -0.0000005235065146 -0.0688000023365021
vn -5.3014924630572517 -0.2149073385668407 -2.2687799022397281
v 0.0225000008940697 -0.0019576644990593 -0.0687322244048119
vn -2.9742156107212514 0.0000008356543183 0.0000001635618093
v 0.0224999990314245 -0.0066336770541966 -0.0680115893483162
vn -5.1835846712541320 -2.1992425234179787 0.8588642798380774
v 0.0224999971687794 -0.0170571208000183 -0.0066938530653715
vn -5.2037136625351250 -1.6596193993223578 1.6596176275262773
v 0.0224999971687794 -0.0168837029486895 -0.0064343158155680
vn -5.1835788530485365 -0.8588675973659843 2.1992465975988473
v 0.0224999971687794 -0.0166241638362408 -0.0062608961015940
vn -5.2752486631217348 -1.5493965353590375 -1.7012202576191398
v 0.0224999971687794 -0.0190559569746256 -0.0614229440689087
vn -5.2752403505808312 -1.8111673602725404 -1.4193288575365706
v 0.0224999971687794 -0.0222753304988146 -0.0579559504985809
vn -5.2752556749409543 -2.0222992820827175 -1.0977539541142785
v 0.0224999971687794 -0.0248721279203892 -0.0540010705590248
vn -2.9742161992013547 0.0000000000000000 0.0000000000000000
v 0.0224999971687794 -0.0267737712711096 -0.0496688485145569
vn -5.2752677736180731 -2.2706846983632989 -0.3724237120381360
v 0.0224999971687794 -0.0279271081089973 -0.0450803637504578
vn -2.9742162208081178 0.0000028826734843 -0.0000007023261597
v 0.0224999953061342 -0.0282999072223902 -0.0403638556599617
vn -5.2752600859809498 -2.2670066564489737 0.3942550679275060
v 0.0224999971687794 -0.0278817452490330 -0.0356511548161507
vn -5.2752549272416269 -2.1696465439503068 0.7664170110005876
v 0.0224999971687794 -0.0266843121498823 -0.0310739744454622
vn -2.9742162122089288 0.0000000000000000 0.0000000000000000
v 0.0224999971687794 -0.0247410759329796 -0.0267602484673262
vn 5.3171893924509277 -0.2533177327960451 -2.2502527126607554
v 0.0265000015497208 -0.0023520286194980 -0.0687021091580391
vn 5.3240555048471467 0.0073034502481100 -2.2587285327282487
v 0.0265000015497208 -0.0000005240814289 -0.0688000023365021
vn 5.3838107285753320 -1.6361964948721008 1.4706210418257293
v 0.0264999978244305 -0.0188537631183863 -0.0193946827203035
vn 5.3180816489339620 2.1476453288365338 0.7139502210327334
v 0.0265000052750111 0.0266556721180677 -0.0309945959597826
vn 5.3182234157170800 1.9994956801373851 1.0600440650066880
v 0.0265000052750111 0.0247133821249008 -0.0267113391309977
vn 5.4939665340534960 -1.9882312799620885 0.5765621528278001
v 0.0264999978244305 -0.0173237714916468 -0.0169649478048086
vn 5.2831407518005227 1.7812585637729077 1.4462835667110359
v 0.0265000052750111 0.0220885556191206 -0.0228088889271021
vn 5.3845283305593741 1.6368162473206795 1.4687910450888584
v 0.0265000034123659 0.0188536867499352 -0.0193950328975916
vn 5.4932442202256011 1.7535192262083934 1.1020924789497479
v 0.0265000034123659 0.0179153680801392 -0.0182841662317514
vn 5.4932495701898878 1.9901126345662037 0.5734672780569452
v 0.0265000034123659 0.0173213258385658 -0.0169569235295057
vn 5.4285037932848414 -2.1457880390981465 0.1470499388089843
v 0.0264999978244305 -0.0171180181205273 -0.0155166741460562
vn 5.4281397785413192 2.1462677236561367 0.1462257505171893
v 0.0265000034123659 0.0171180125325918 -0.0155170876532793
vn 5.3179376587521263 2.2363685842335435 0.3481200102755857
v 0.0265000052750111 0.0278617851436138 -0.0355403795838356
vn 5.4928849914930016 -1.7515039918850568 1.1061828322919338
v 0.0264999978244305 -0.0179247483611107 -0.0182986129075289
vn 5.3177727233329124 2.2632476859490791 -0.0273128095535610
v 0.0265000052750111 0.0282984115183353 -0.0402231290936470
vn 5.3169227775339367 1.7636808507965682 -1.4195593158674469
v 0.0265000052750111 0.0224304720759392 -0.0577555298805237
vn 5.3171647014511771 1.9742502395302344 -1.1078285843505369
v 0.0265000052750111 0.0249784402549267 -0.0538024753332138
vn 5.3173933445133637 2.1303183432929220 -0.7654791376213776
v 0.0265000052750111 0.0268365517258644 -0.0494820326566696
vn 5.3175907435860896 2.2275604908766438 -0.4019625832676943
v 0.0265000052750111 0.0279534924775362 -0.0449135228991508
vn 5.3137213763501947 -0.6041266872830325 -2.1844966153638494
v 0.0264999996870756 -0.0069901407696307 -0.0679231882095337
vn 5.2096857724095331 -0.3266805467383035 2.3298952802204140
v 0.0264999978244305 -0.0163180176168680 -0.0061999987810850
vn 5.0563420495869478 -1.2191714856034195 2.1116715060314570
v 0.0264999978244305 -0.0167180169373751 -0.0063071791082621
vn 5.0563361548194568 -2.1116694946045200 1.2191809545152421
v 0.0264999978244305 -0.0170108377933502 -0.0065999981015921
vn 5.3108624737484540 -1.5742949219566804 -1.6338254128885494
v 0.0264999978244305 -0.0192638728767633 -0.0612316727638245
vn 5.3119607841381606 -1.2829911272847392 -1.8701676983143403
v 0.0264999996870756 -0.0155644649639726 -0.0641356706619263
vn 5.3128933614446048 -0.9566568280617088 -2.0554542206219435
v 0.0264999996870756 -0.0114352069795132 -0.0663869008421898
vn 5.3334873198332620 0.1799221018651656 -2.2416933870680484
v 0.0265000015497208 0.0023510348983109 -0.0687021538615227
vn 5.3154693523390950 0.5123396853910641 -2.2064014051687080
v 0.0265000015497208 0.0069891614839435 -0.0679233223199844
vn 5.3159076587597278 0.8700507311967765 -2.0909746421521538
v 0.0265000034123659 0.0114342560991645 -0.0663871094584465
vn 5.1424996033382895 1.6925209781400843 1.6925226519180112
v 0.0265000034123659 0.0168836973607540 -0.0064343158155680
vn 5.1424862992643652 0.9159975801631127 2.2113931326191936
v 0.0265000034123659 0.0166241582483053 -0.0062608961015940
vn 5.1424939852779001 2.2113892422185306 0.9159909788796475
v 0.0265000034123659 0.0170571152120829 -0.0066938530653715
vn 5.2527594479793738 0.2380617671356371 2.3075196229484671
v 0.0265000034123659 0.0163180120289326 -0.0061999987810850
vn 5.2527613026189766 2.3075185699766507 0.2380591378818772
v 0.0265000034123659 0.0171180125325918 -0.0070000011473894
vn 5.2096877972554552 -2.3298941444672492 0.3266760249315822
v 0.0264999978244305 -0.0171180181205273 -0.0070000011473894
vn 5.2758053665821318 -1.7956308830085932 1.4381920549881204
v 0.0264999978244305 -0.0220886953175068 -0.0228084791451693
vn 5.2879656380455451 -1.9930950872300022 1.1263950601873662
v 0.0264999978244305 -0.0247135926038027 -0.0267108771950006
vn 5.3078955067816249 -2.0217236585581575 -1.0353831624320624
v 0.0264999978244305 -0.0249791555106640 -0.0538020133972168
vn 5.2931828043975786 -2.1460672958277831 0.7835029398308234
v 0.0264999978244305 -0.0266559626907110 -0.0309941004961729
vn 5.3178500250158729 1.1946728328958949 -1.9226782218442826
v 0.0265000034123659 0.0155635559931397 -0.0641359612345695
vn 5.3306993430088419 1.5172051543997651 -1.6634973741984931
v 0.0265000034123659 0.0192630197852850 -0.0612320303916931
vn 5.3095012807810029 -1.8227525439654566 -1.3530138975442627
v 0.0264999978244305 -0.0224312618374825 -0.0577551200985909
vn 5.2973159197136725 -2.2416153727843193 0.4212998146823415
v 0.0264999978244305 -0.0278621613979340 -0.0355398580431938
vn 5.3007596432814461 -2.2772426218315474 0.0485395654207140
v 0.0264999959617853 -0.0282988753169775 -0.0402226001024246
vn 5.3059538828406962 -2.1659955618217475 -0.6896137152476867
v 0.0264999978244305 -0.0268371868878603 -0.0494815334677696
vn 5.3035969832910617 -2.2518686389013416 -0.3250630358603854
v 0.0264999978244305 -0.0279540419578552 -0.0449130088090897
vn 2.1137115598081078 5.2251217216594279 0.5059551216512826
v 0.0263000037521124 0.0173180121928453 -0.0070000011473894
vn 2.0059843464022942 4.6999698199965030 1.9467886498728346
v 0.0263000037521124 0.0172418914735317 -0.0066173169761896
vn 2.0059860854001430 3.5971886316724575 3.5971966571790235
v 0.0263000037521124 0.0170251186937094 -0.0062928926199675
vn 2.0059858067481047 1.9468027188453667 4.6999721520574687
v 0.0263000037521124 0.0167006962001324 -0.0060761217027903
vn 2.1137083340488410 0.5059657055161680 5.2251181222397571
v 0.0263000037521124 0.0163180120289326 -0.0059999991208315
vn 2.2856233626377209 5.4117861467497734 0.3855313005160430
v 0.0263000037521124 0.0173180121928453 -0.0155170876532793
vn 2.0845267477870433 -0.6578814604610823 5.1640171949610494
v 0.0262999981641769 -0.0163180176168680 -0.0059999991208315
vn -2.1137087024641188 0.5059668556008743 5.2251176007122204
v 0.0227000024169683 0.0163180120289326 -0.0059999991208315
vn -2.0059843917351237 1.9468001269906623 4.6999751917918413
v 0.0227000024169683 0.0167006962001324 -0.0060761217027903
vn -2.0059851117736507 3.5971924763649135 3.5971945800851959
v 0.0227000024169683 0.0170251186937094 -0.0062928926199675
vn -2.0059859435416181 4.6999677266069639 1.9467883460878452
v 0.0227000024169683 0.0172418914735317 -0.0066173169761896
vn -2.1137121759430300 5.2251209307093740 0.5059560005018983
v 0.0227000024169683 0.0173180121928453 -0.0070000011473894
vn 2.3494221709429159 5.2471687858609926 1.5116600060500505
v 0.0263000037521124 0.0175135061144829 -0.0169015433639288
vn 2.3494172278207954 4.6231366460397076 2.9059539134147898
v 0.0263000037521124 0.0180847011506557 -0.0181777421385050
vn 2.2535286544018529 4.0160578826409985 3.6047426135745910
v 0.0263000037521124 0.0189869292080402 -0.0192458797246218
vn -2.2859746362216815 3.8567608946719005 0.1669618330348098
v 0.0227000024169683 0.0173180121928453 -0.0155170876532793
vn 1.9519457372861735 -2.4808245706962699 4.3014776287844443
v 0.0262999981641769 -0.0168180186301470 -0.0061339754611254
vn 1.9519434866571903 -4.3014798512587653 2.4808141396631358
v 0.0262999981641769 -0.0171840433031321 -0.0065000001341105
vn 2.0845292706630856 -5.1640205115248028 0.6578730283097753
v 0.0262999981641769 -0.0173180177807808 -0.0070000011473894
vn -2.1137083340488410 -0.5059657055161680 5.2251181222397580
v 0.0226999968290329 -0.0163180176168680 -0.0059999991208315
vn 2.2410924339525686 -2.8223157303789814 2.5833494836534503
v 0.0262999981641769 -0.0189870037138462 -0.0192455258220434
vn 2.1345739290180581 -4.1088201935892217 3.2925922897006092
v 0.0262999981641769 -0.0222447980195284 -0.0226834509521723
vn 2.1767397720340114 -4.5346034355808396 2.7784358974921353
v 0.0262999981641769 -0.0248882453888655 -0.0266134273260832
vn 2.1909837097657587 -4.7423828904624381 2.3779987847680464
v 0.0262999981641769 -0.0249159224331379 -0.0266631450504065
vn 2.1759825603606200 -4.9335875037905117 1.9860360022818881
v 0.0262999981641769 -0.0268443431705236 -0.0309269223362207
vn 2.1983270649710263 -5.0655165409820775 1.5505453514954606
v 0.0262999981641769 -0.0268728919327259 -0.0310073588043451
vn 2.1754045804285136 -5.1948621439797593 1.1391390065248614
v 0.0262999981641769 -0.0280590653419495 -0.0355048030614853
vn 2.2060944507646161 -5.2450954838229764 0.6823591318134409
v 0.0262999963015318 -0.0280787870287895 -0.0356168821454048
vn 2.1748121171721797 -5.3118830539458628 0.2606533709223731
v 0.0262999963015318 -0.0284988656640053 -0.0402206405997276
vn 2.2142484064629238 -5.2767420701747367 -0.2018032195289662
v 0.0262999963015318 -0.0284999050199986 -0.0403628945350647
vn 2.1742212060395243 -5.2813842721509330 -0.6251048389084342
v 0.0262999963015318 -0.0281515959650278 -0.0449441969394684
vn 2.2226377482961719 -5.1604081181182533 -1.0769712468279371
v 0.0262999963015318 -0.0281244721263647 -0.0451127290725708
vn 2.1778927045147656 -2.0913441208287455 -0.6133970782786441
v 0.0262999981641769 -0.0270268470048904 -0.0495450049638748
vn 2.2312091658206588 -4.9000994437908147 -1.9185456908767451
v 0.0262999981641769 -0.0269629824906588 -0.0497336462140083
vn 2.1730608113858372 -4.7852804558874986 -2.3203911796682779
v 0.0262999981641769 -0.0251556858420372 -0.0538960173726082
vn 2.2398671102505854 -4.5039262113431882 -2.7031847376418723
v 0.0262999981641769 -0.0250479020178318 -0.0540964826941490
vn 2.1724748792430733 -4.3334458697906388 -3.0828627123185823
v 0.0262999981641769 -0.0225897841155529 -0.0578770637512207
vn 2.2485516386282156 -3.9836443099114422 -3.4092392783368388
v 0.0262999981641769 -0.0224327519536018 -0.0580793097615242
vn 2.1719181757460779 -3.7612901892713100 -3.7596686608271281
v 0.0262999981641769 -0.0194000117480755 -0.0613781884312630
vn 2.2572294342390249 -3.3544120245947879 -4.0173633055664189
v 0.0262999981641769 -0.0191906280815601 -0.0615708082914352
vn 2.1713207160294883 -3.0846572329241115 -4.3321089457683941
v 0.0263000000268221 -0.0156744588166475 -0.0643027052283287
vn 2.2658040093391838 -2.6343013370925812 -4.5112633158145181
v 0.0263000000268221 -0.0154121434316039 -0.0644733831286430
vn 2.1707389157558596 -2.3223787236833631 -4.7842132520548315
v 0.0263000000268221 -0.0115160197019577 -0.0665698423981667
vn 2.2742940781296150 -1.8437591292533759 -4.8776587809753025
v 0.0263000000268221 -0.0112029043957591 -0.0667059198021889
vn 2.1780147939101528 -0.6112386781609689 -2.0918403536554355
v 0.0263000000268221 -0.0070395390503109 -0.0681169927120209
vn 2.2826903158065650 -1.0050507790615990 -5.1069871022435986
v 0.0263000000268221 -0.0066805570386350 -0.0682060196995735
vn 2.1696310943537278 -0.6272251396423975 -5.2808812269977778
v 0.0263000018894672 -0.0023686490021646 -0.0689014196395874
vn 2.2540067545552041 -0.2775778813940705 -5.2781766618990602
v 0.0263000018894672 -0.0019714990630746 -0.0689317435026169
vn 2.1825284738045778 0.0184146708158488 -5.3218603904064290
v 0.0263000018894672 -0.0000005260955618 -0.0689999982714653
vn 2.1929780970521988 0.3525305611189536 -5.3256877161983915
v 0.0263000018894672 0.0023676515556872 -0.0689014643430710
vn 2.2989884578666673 0.7223617268250078 -5.1356373314962376
v 0.0263000018894672 0.0027926545590162 -0.0688628256320953
vn 2.1684909032771880 1.1370750435634207 -5.1949691416411286
v 0.0263000018894672 0.0070385565049946 -0.0681171268224716
vn 2.3068806624408573 1.5631246037565460 -4.9353845607953986
v 0.0263000018894672 0.0074787489138544 -0.0680011808872223
vn 2.1673607082433182 2.7759168878466323 -4.5359193045525590
v 0.0263000037521124 0.0156735479831696 -0.0643029958009720
vn 2.3146136645322386 2.3574002409581536 -4.5989293647009353
v 0.0263000037521124 0.0119558097794652 -0.0663708895444870
vn 2.1679376300719944 1.9840504030922839 -4.9339477366232671
v 0.0263000037521124 0.0115150650963187 -0.0665700584650040
vn 2.2807153428910221 3.0312951734196045 -4.3029417756011954
v 0.0263000037521124 0.0160987079143524 -0.0640175268054008
vn 2.5281663900000608 3.0198495283111453 -3.8578724620942837
v 0.0263000037521124 0.0173175502568483 -0.0631350278854370
vn 2.1864434015798122 3.5540891712784553 -3.9758484587083625
v 0.0263000037521124 0.0193991549313068 -0.0613785460591316
vn 2.3295476638771579 3.7213472017393419 -3.5603282521086759
v 0.0263000037521124 0.0197916477918625 -0.0610068663954735
vn 2.1662996487772994 4.1084460015656363 -3.3763921836335022
v 0.0263000056147575 0.0225889943540096 -0.0578774809837341
vn 2.3367551168650924 4.2539150358901114 -2.8878263315943187
v 0.0263000056147575 0.0229314174503088 -0.0574230477213860
vn 2.1657400452750637 4.6121406262428160 -2.6471407697169402
v 0.0263000056147575 0.0251549687236547 -0.0538964867591858
vn 2.3437581035548809 4.6667976241210729 -2.1376072847831975
v 0.0263000056147575 0.0254302602261305 -0.0533662363886833
vn 2.1651992242760065 4.9877078739889198 -1.8443582885487848
v 0.0263000056147575 0.0270262118428946 -0.0495455116033554
vn 2.3505901817091797 4.9489756035084884 -1.3306701673529955
v 0.0263000056147575 0.0272183343768120 -0.0489498227834702
vn 2.1646570464584491 5.2247371378522782 -0.9903589679886322
v 0.0263000056147575 0.0281510446220636 -0.0449447184801102
vn 2.3572430027027083 5.0931164104956919 -0.4895242917035037
v 0.0263000056147575 0.0282456669956446 -0.0442972406744957
vn 2.1641250121310613 5.3166341138112392 -0.1088495539006834
v 0.0263000056147575 0.0284984018653631 -0.0402211695909500
vn 2.3637270874460965 5.0957034001991754 0.3624703099434727
v 0.0263000056147575 0.0284835435450077 -0.0395385324954987
vn 2.1635981419829422 5.2608445744049854 0.7756857707418421
v 0.0263000056147575 0.0280586890876293 -0.0355053246021271
vn 2.3700332658498575 4.9571557656892029 1.2017379628657472
v 0.0263000056147575 0.0279253143817186 -0.0348066985607147
vn 2.1630710368348542 5.0589253946788588 1.6386669636391538
v 0.0263000056147575 0.0268440525978804 -0.0309274215251207
vn 2.3761676417514703 4.6817492523252131 2.0051318179592776
v 0.0263000056147575 0.0265865828841925 -0.0302339810878038
vn 2.1625602893125895 4.7164705367253532 2.4561245978785067
v 0.0263000056147575 0.0248880349099636 -0.0266138892620802
vn 2.3701756915068062 4.2701094357113085 2.7611302108068205
v 0.0263000056147575 0.0245047658681870 -0.0259481947869062
vn 2.1295145605596573 4.1150709637132232 3.2982453061138739
v 0.0263000056147575 0.0222446601837873 -0.0226838644593954
vn -0.0007841294443753 2.3236936640072834 2.1114068312970615
v 0.0226999986916780 0.0189869292080402 -0.0192458797246218
vn -0.0000107789472179 2.6297182308985940 1.6620432073123537
v 0.0226999986916780 0.0180936828255653 -0.0181919764727354
vn 0.0011740189051351 2.9874988976638157 0.8660349903264513
v 0.0226999986916780 0.0175158437341452 -0.0169096309691668
vn 0.0003923908155463 1.5552248478645527 0.2206279414424310
v 0.0226999986916780 0.0173180121928453 -0.0155170876532793
vn 2.2855779945884942 -5.4119911571980923 0.3875972573268376
v 0.0262999981641769 -0.0173180177807808 -0.0155166741460562
vn -2.1137115598081078 -5.2251217216594288 0.5059551216512828
v 0.0226999968290329 -0.0173180177807808 -0.0070000011473894
vn -2.0788302117009909 -4.9202856391828718 1.6779693528766406
v 0.0226999968290329 -0.0172418970614672 -0.0066173169761896
vn -2.1393235351306559 -4.4347175472303206 2.7583708255498625
v 0.0226999968290329 -0.0171840433031321 -0.0065000001341105
vn -2.0803765575642994 -3.6744244745356860 3.6744302577768848
v 0.0226999968290329 -0.0170251242816448 -0.0062928926199675
vn -2.1393226536067571 -2.7583712504544202 4.4347204629654637
v 0.0226999968290329 -0.0168180186301470 -0.0061339754611254
vn -2.0788279461428818 -1.6779838432548924 4.9202902417786420
v 0.0226999968290329 -0.0167007017880678 -0.0060761217027903
vn 2.3492205254819001 -4.6170327080682219 2.9152652531652206
v 0.0262999981641769 -0.0180937200784683 -0.0181916151195765
vn 2.3499801054780791 -5.2447462356471259 1.5212537249009994
v 0.0262999981641769 -0.0175158567726612 -0.0169092472642660
vn 0.0000000000000000 -1.1407284408630773 1.0798794953504920
v 0.0226999968290329 -0.0189870037138462 -0.0192455258220434
vn -0.0008528983844382 -2.4451533342179372 1.9550823581459427
v 0.0226999968290329 -0.0222625713795424 -0.0227056648582220
vn 0.0029656303526488 2.3982165287004653 2.0150462414661630
v 0.0227000005543232 0.0217380467802286 -0.0220691245049238
vn -0.0203716658995468 2.6851909696045038 1.6116526195414822
v 0.0227000005543232 0.0245047658681870 -0.0259481947869062
vn -0.0308385230413087 2.9211705182375480 1.1311971049070020
v 0.0227000005543232 0.0265865828841925 -0.0302339810878038
vn -0.0299333709523482 3.0687585373928732 0.6286580239329616
v 0.0227000005543232 0.0279253143817186 -0.0348066985607147
vn -0.0290084074830302 3.1305498897557262 0.1085568972534805
v 0.0227000005543232 0.0284835435450077 -0.0395385324954987
vn -0.0280641194797755 3.1048178199445839 -0.4145652049060845
v 0.0227000005543232 0.0282456669956446 -0.0442972406744957
vn -0.0270995983468684 2.9922822392882029 -0.9260819377620146
v 0.0227000005543232 0.0272183343768120 -0.0489498227834702
vn -0.0261139245832163 2.7960899086331810 -1.4116926891356796
v 0.0227000005543232 0.0254302602261305 -0.0533662363886833
vn -0.0251073522327448 2.5217268904695445 -1.8578204923586787
v 0.0227000005543232 0.0229314174503088 -0.0574230477213860
vn -0.0184516810920369 2.2055249776546617 -2.2277382186163752
v 0.0226999986916780 0.0197916477918625 -0.0610068663954735
vn -2.4962217699366152 3.0749331203418753 -3.8675779802779333
v 0.0227000024169683 0.0173175502568483 -0.0631350278854370
vn -0.0151804610069873 1.7061911557447069 -2.6328482248662421
v 0.0226999986916780 0.0160987079143524 -0.0640175268054008
vn -0.0219677130117958 1.3159254046124738 -2.8421324819415199
v 0.0226999986916780 0.0119558107107878 -0.0663708895444870
vn -0.0208788446580013 0.8239190257076742 -3.0216050268033832
v 0.0226999968290329 0.0074787493795156 -0.0680011808872223
vn -0.0138159453981850 0.3591358589757233 -3.1147886679640910
v 0.0227000005543232 0.0027926552575082 -0.0688628256320953
vn -2.1834762263604515 0.0337857081899275 -5.3176078346301185
v 0.0227000005543232 -0.0000005255781161 -0.0689999982714653
vn -0.0123856491180673 -0.2852654723008237 -3.1235596924469959
v 0.0227000005543232 -0.0019714983645827 -0.0689317435026169
vn -0.0174807032692061 -0.7323801826491362 -3.0448698754113912
v 0.0226999986916780 -0.0066805565729737 -0.0682060196995735
vn -0.0078171080185187 -0.8843457852625266 -3.0115692930095062
v 0.0263000000268221 -0.0070395395159721 -0.0681169927120209
vn -0.0163050348392162 -1.2295057010857442 -2.8801861917028555
v 0.0226999986916780 -0.0112029034644365 -0.0667059198021889
vn -0.0151082522173880 -1.6922278821213887 -2.6349676529707180
v 0.0226999986916780 -0.0154121425002813 -0.0644733831286430
vn -0.0138876816007937 -2.1076120688822808 -2.3160689934911582
v 0.0226999968290329 -0.0191906280815601 -0.0615708082914352
vn -2.1466872040420446 -4.1437738946767864 -3.2487429994597417
v 0.0226999968290329 -0.0224327519536018 -0.0580793097615242
vn -2.1454341358285838 -4.6270860377609893 -2.5128249213374012
v 0.0226999968290329 -0.0250479020178318 -0.0540964826941490
vn -2.1441501920213986 -4.9810212534060039 -1.7066757361939069
v 0.0226999968290329 -0.0269629824906588 -0.0497336462140083
vn -0.0042466323126784 -3.0128750250212528 -0.8800776239523391
v 0.0262999981641769 -0.0270268488675356 -0.0495450049638748
vn -2.1428459993497122 -5.1956769452486613 -0.8528260117997464
v 0.0226999949663877 -0.0281244721263647 -0.0451127290725708
vn -2.1415116081023831 -5.2650612391819651 0.0248416636509649
v 0.0226999949663877 -0.0284999050199986 -0.0403628945350647
vn -0.0060913258098603 -3.0847482782545659 0.5361525754730223
v 0.0226999949663877 -0.0280787870287895 -0.0356168821454048
vn -2.1387636317486320 -4.9643723757046221 1.7535086349371634
v 0.0226999968290329 -0.0268728919327259 -0.0310073588043451
vn -0.0033060611156338 -2.7370391092671342 1.5200807160144296
v 0.0226999968290329 -0.0249159224331379 -0.0266631450504065
vn -1.1742152633353677 0.9044198343769765 0.7665543475100841
v 0.0226999986916780 0.0189869273453951 -0.0192458797246218
vn -1.0365124207924250 0.7983564919508518 0.6766588024195059
v 0.0225000027567148 0.0188536848872900 -0.0193950291723013
vn -2.3494673195010947 1.9866637173250146 1.2542220768211418
v 0.0227000024169683 0.0180936809629202 -0.0181919764727354
vn -2.0715801313215318 1.7515101073138879 1.1061590043237624
v 0.0225000027567148 0.0179247073829174 -0.0182989742606878
vn -2.3504997123368412 2.2574940754532120 0.6546322581874784
v 0.0227000024169683 0.0175158437341452 -0.0169096309691668
vn -1.0350725561624199 1.0350629163714429 0.1470470401783532
v 0.0225000027567148 0.0171180106699467 -0.0155170876532793
vn -2.2856248495288596 -5.4117868396400981 0.3855414655530906
v 0.0226999968290329 -0.0173180177807808 -0.0155166741460562
vn -2.2412357682047883 -2.8803009835545730 2.5183437477249351
v 0.0226999968290329 -0.0189870037138462 -0.0192455295473337
vn 0.0000000000000000 -1.1982774399108052 1.0156437747917062
v 0.0262999981641769 -0.0189870037138462 -0.0192455295473337
vn -2.2857322213937610 -4.3711684449023238 3.2135916592522316
v 0.0226999968290329 -0.0180937200784683 -0.0181916151195765
vn -2.2801351302673472 -4.7922855620660743 2.5581269433100600
v 0.0226999968290329 -0.0180847384035587 -0.0181773807853460
vn -2.2866100385352519 -5.0918598253653045 1.8731420540760695
v 0.0226999968290329 -0.0175158567726612 -0.0169092472642660
vn -2.2825703089524909 -5.3104817102448019 1.1279716904419836
v 0.0226999968290329 -0.0175135210156441 -0.0169011596590281
vn -1.0748427622732062 0.7716379591516533 0.7519238600658079
v 0.0227000024169683 0.0189869292080402 -0.0192458797246218
vn -2.1418711325304622 1.6433887119534312 1.3736949721205616
v 0.0227000042796135 0.0217380467802286 -0.0220691245049238
vn -2.1340609193125566 1.8349011686821721 1.0896185970872483
v 0.0227000042796135 0.0245047658681870 -0.0259481947869062
vn -2.1340555018211704 1.9907908650639587 0.7687065279809148
v 0.0227000042796135 0.0265865828841925 -0.0302339810878038
vn -2.1340512323538769 2.0910381682518899 0.4263083205042140
v 0.0227000042796135 0.0279253143817186 -0.0348066985607147
vn -2.1340530146952847 2.1328348806253405 0.0719948091516054
v 0.0227000042796135 0.0284835435450077 -0.0395385324954987
vn -2.1340519106304265 2.1150249266542573 -0.2843323351987865
v 0.0227000042796135 0.0282456669956446 -0.0442972406744957
vn -2.1340533309109895 2.0380976247259417 -0.6327143045983147
v 0.0227000042796135 0.0272183343768120 -0.0489498227834702
vn -2.1340648669184827 1.9041967188271607 -0.9634052714217867
v 0.0227000042796135 0.0254302602261305 -0.0533662363886833
vn -2.1340702468233710 1.7170818801289305 -1.2671685340939769
v 0.0227000042796135 0.0229314174503088 -0.0574230477213860
vn -2.1482246209533624 1.5116262733047745 -1.5266303383670290
v 0.0227000024169683 0.0197916477918625 -0.0610068663954735
vn -2.1643351829197255 1.1726553367110752 -1.8201835416849406
v 0.0227000024169683 0.0160987079143524 -0.0640175268054008
vn -2.1340446092954055 0.8952607647745359 -1.9371936632110354
v 0.0227000024169683 0.0119558107107878 -0.0663708895444870
vn -2.1340610949669157 0.5600162454064888 -2.0592502153942149
v 0.0227000005543232 0.0074787493795156 -0.0680011808872223
vn -2.1525439041222887 0.2469528402881176 -2.1386605597686854
v 0.0227000005543232 0.0027926557231694 -0.0688628256320953
vn -2.1601097872903487 -0.2009481458801074 -2.1513801547677169
v 0.0227000005543232 -0.0019714978989214 -0.0689317435026169
vn -2.1340629891204954 -0.5002123903695721 -2.0745851797088362
v 0.0226999986916780 -0.0066805561073124 -0.0682060196995735
vn -2.3010511995249296 -0.5393537933882963 -2.2369184736210284
v 0.0224999990314245 -0.0066336765885353 -0.0680115893483162
vn -2.1340599693896740 -0.8388417222059692 -1.9622653646837698
v 0.0226999986916780 -0.0112029025331140 -0.0667059198021889
vn -2.1340523782030245 -1.1540269337449525 -1.7951031091890162
v 0.0226999986916780 -0.0154121415689588 -0.0644733831286430
vn -2.1340483485048738 -1.4369589977497830 -1.5777632108149009
v 0.0226999968290329 -0.0191906262189150 -0.0615708082914352
vn -2.3010432646802674 -2.1769150582624972 -0.7455053304756406
v 0.0224999971687794 -0.0267737694084644 -0.0496688485145569
vn -2.3010494206594947 -2.3009964115099204 0.0110705798761960
v 0.0224999953061342 -0.0282999053597450 -0.0403638556599617
vn -2.1340579777335238 -2.1024885128804192 0.3656412779672036
v 0.0226999949663877 -0.0280787870287895 -0.0356168895959854
vn -2.1340570865529553 -1.8656569131298197 1.0360864254116908
v 0.0226999968290329 -0.0249159224331379 -0.0266631487756968
vn -2.3010426438510758 -2.0116399664538243 1.1171592332110554
v 0.0224999971687794 -0.0247410740703344 -0.0267602484673262
vn -2.1340530223733554 -1.6669805764534991 1.3324204530223565
v 0.0226999968290329 -0.0222625732421875 -0.0227056685835123
# 330 vertices, 0 vertices normals

f 1//1 2//2 3//3
f 3//3 2//2 4//4
f 3//3 4//4 5//5
f 5//5 4//4 6//6
f 5//5 6//6 7//7
f 8//8 9//9 10//10
f 10//10 9//9 11//11
f 12//12 13//13 2//2
f 2//2 13//13 14//14
f 2//2 14//14 15//15
f 7//7 6//6 10//10
f 10//10 6//6 16//16
f 10//10 16//16 8//8
f 17//17 2//2 18//18
f 18//18 2//2 19//19
f 11//11 20//20 10//10
f 10//10 20//20 21//21
f 10//10 21//21 22//22
f 1//1 23//23 2//2
f 2//2 23//23 24//24
f 2//2 24//24 25//25
f 15//15 26//26 2//2
f 2//2 26//26 27//27
f 2//2 27//27 19//19
f 22//22 28//28 10//10
f 10//10 28//28 29//29
f 10//10 29//29 30//30
f 30//30 29//29 31//31
f 30//30 31//31 32//32
f 32//32 31//31 33//33
f 32//32 33//33 34//34
f 25//25 35//35 2//2
f 2//2 35//35 36//36
f 2//2 36//36 12//12
f 5//5 37//37 38//38
f 5//5 38//38 3//3
f 3//3 38//38 39//39
f 3//3 39//39 1//1
f 1//1 39//39 40//40
f 1//1 40//40 23//23
f 23//23 40//40 41//41
f 23//23 41//41 24//24
f 24//24 41//41 42//42
f 24//24 42//42 25//25
f 25//25 42//42 43//43
f 25//25 43//43 35//35
f 35//35 43//43 44//44
f 35//35 44//44 36//36
f 36//36 44//44 45//45
f 36//36 45//45 12//12
f 12//12 45//45 46//46
f 12//12 46//46 13//13
f 13//13 46//46 47//47
f 13//13 47//47 14//14
f 14//14 47//47 48//48
f 14//14 48//48 49//49
f 49//49 48//48 50//50
f 49//49 50//50 26//26
f 26//26 50//50 51//51
f 26//26 51//51 27//27
f 27//27 51//51 52//52
f 27//27 52//52 19//19
f 19//19 52//52 53//53
f 19//19 53//53 18//18
f 18//18 53//53 54//54
f 18//18 54//54 17//17
f 17//17 54//54 55//55
f 17//17 55//55 2//2
f 2//2 55//55 56//56
f 2//2 56//56 4//4
f 4//4 56//56 57//57
f 4//4 57//57 6//6
f 6//6 57//57 58//58
f 6//6 58//58 16//16
f 16//16 58//58 59//59
f 16//16 59//59 8//8
f 8//8 59//59 60//60
f 8//8 60//60 9//9
f 9//9 60//60 61//61
f 9//9 61//61 11//11
f 11//11 61//61 62//62
f 11//11 62//62 20//20
f 20//20 62//62 63//63
f 20//20 63//63 64//64
f 64//64 63//63 65//65
f 64//64 65//65 22//22
f 22//22 65//65 66//66
f 22//22 66//66 28//28
f 28//28 66//66 67//67
f 28//28 67//67 29//29
f 29//29 67//67 68//68
f 29//29 68//68 31//31
f 31//31 68//68 69//69
f 31//31 69//69 33//33
f 33//33 69//69 70//70
f 33//33 70//70 34//34
f 34//34 70//70 71//71
f 34//34 71//71 32//32
f 32//32 71//71 72//72
f 32//32 72//72 30//30
f 30//30 72//72 73//73
f 30//30 73//73 10//10
f 10//10 73//73 74//74
f 10//10 74//74 7//7
f 7//7 74//74 37//37
f 7//7 37//37 5//5
f 38//38 37//37 55//55
f 55//55 37//37 74//74
f 55//55 74//74 56//56
f 53//53 52//52 43//43
f 53//53 43//43 54//54
f 54//54 43//43 55//55
f 55//55 43//43 42//42
f 55//55 42//42 41//41
f 41//41 40//40 55//55
f 55//55 40//40 39//39
f 55//55 39//39 38//38
f 56//56 74//74 57//57
f 57//57 74//74 73//73
f 57//57 73//73 72//72
f 72//72 71//71 57//57
f 57//57 71//71 70//70
f 57//57 70//70 69//69
f 66//66 65//65 67//67
f 67//67 65//65 63//63
f 67//67 63//63 62//62
f 62//62 61//61 67//67
f 67//67 61//61 60//60
f 67//67 60//60 59//59
f 69//69 68//68 57//57
f 57//57 68//68 67//67
f 57//57 67//67 58//58
f 58//58 67//67 59//59
f 45//45 50//50 46//46
f 46//46 50//50 48//48
f 46//46 48//48 47//47
f 52//52 51//51 43//43
f 43//43 51//51 50//50
f 43//43 50//50 44//44
f 44//44 50//50 45//45
f 75//75 76//76 77//77
f 78//78 79//79 80//80
f 80//80 79//79 81//81
f 76//76 82//82 77//77
f 77//77 82//82 83//83
f 77//77 83//83 84//84
f 85//85 78//78 86//86
f 79//79 87//87 81//81
f 81//81 87//87 88//88
f 81//81 88//88 89//89
f 89//89 90//90 81//81
f 81//81 90//90 91//91
f 81//81 91//91 77//77
f 77//77 91//91 92//92
f 77//77 92//92 75//75
f 93//93 94//94 95//95
f 78//78 80//80 86//86
f 86//86 80//80 96//96
f 86//86 96//96 97//97
f 83//83 98//98 84//84
f 84//84 98//98 99//99
f 84//84 99//99 100//100
f 101//101 102//102 86//86
f 86//86 102//102 103//103
f 86//86 103//103 85//85
f 100//100 104//104 84//84
f 84//84 104//104 105//105
f 84//84 105//105 106//106
f 106//106 107//107 84//84
f 84//84 107//107 108//108
f 84//84 108//108 95//95
f 95//95 108//108 109//109
f 95//95 109//109 93//93
f 110//110 111//111 96//96
f 96//96 111//111 112//112
f 96//96 112//112 97//97
f 94//94 113//113 95//95
f 95//95 113//113 114//114
f 95//95 114//114 115//115
f 115//115 116//116 95//95
f 95//95 116//116 117//117
f 95//95 117//117 118//118
f 118//118 119//119 95//95
f 95//95 119//119 120//120
f 95//95 120//120 121//121
f 122//122 123//123 124//124
f 125//125 126//126 127//127
f 127//127 126//126 128//128
f 127//127 128//128 129//129
f 129//129 130//130 127//127
f 127//127 130//130 131//131
f 127//127 131//131 132//132
f 132//132 131//131 133//133
f 125//125 127//127 134//134
f 134//134 127//127 135//135
f 134//134 135//135 136//136
f 137//137 138//138 124//124
f 124//124 138//138 139//139
f 124//124 139//139 135//135
f 135//135 139//139 140//140
f 135//135 140//140 136//136
f 122//122 124//124 141//141
f 142//142 143//143 144//144
f 145//145 146//146 124//124
f 124//124 146//146 147//147
f 124//124 147//147 141//141
f 123//123 148//148 124//124
f 124//124 148//148 149//149
f 124//124 149//149 150//150
f 151//151 152//152 153//153
f 153//153 152//152 154//154
f 153//153 154//154 155//155
f 144//144 156//156 142//142
f 142//142 156//156 132//132
f 142//142 132//132 154//154
f 154//154 132//132 133//133
f 154//154 133//133 155//155
f 157//157 158//158 159//159
f 159//159 158//158 160//160
f 150//150 161//161 124//124
f 124//124 161//161 162//162
f 124//124 162//162 137//137
f 157//157 159//159 124//124
f 124//124 159//159 163//163
f 124//124 163//163 145//145
f 160//160 164//164 159//159
f 159//159 164//164 165//165
f 159//159 165//165 166//166
f 166//166 165//165 167//167
f 155//155 168//168 169//169
f 155//155 169//169 153//153
f 153//153 169//169 170//170
f 153//153 170//170 151//151
f 151//151 170//170 171//171
f 151//151 171//171 152//152
f 152//152 171//171 172//172
f 152//152 172//172 154//154
f 168//168 155//155 173//173
f 173//173 155//155 133//133
f 174//174 142//142 172//172
f 172//172 142//142 154//154
f 175//175 172//172 171//171
f 175//175 171//171 176//176
f 176//176 171//171 170//170
f 176//176 170//170 177//177
f 177//177 170//170 169//169
f 177//177 169//169 178//178
f 178//178 169//169 168//168
f 178//178 168//168 179//179
f 173//173 133//133 180//180
f 180//180 133//133 131//131
f 180//180 131//131 181//181
f 181//181 131//131 130//130
f 181//181 130//130 182//182
f 182//182 130//130 129//129
f 173//173 183//183 168//168
f 168//168 183//183 179//179
f 142//142 174//174 184//184
f 142//142 184//184 143//143
f 143//143 184//184 185//185
f 143//143 185//185 144//144
f 144//144 185//185 186//186
f 144//144 186//186 156//156
f 174//174 172//172 187//187
f 187//187 172//172 175//175
f 86//86 175//175 176//176
f 86//86 176//176 101//101
f 101//101 176//176 177//177
f 101//101 177//177 102//102
f 102//102 177//177 178//178
f 102//102 178//178 103//103
f 103//103 178//178 179//179
f 103//103 179//179 85//85
f 124//124 188//188 189//189
f 124//124 189//189 157//157
f 157//157 189//189 190//190
f 157//157 190//190 158//158
f 158//158 190//190 191//191
f 158//158 191//191 160//160
f 191//191 192//192 160//160
f 160//160 192//192 193//193
f 160//160 193//193 164//164
f 193//193 194//194 164//164
f 164//164 194//194 195//195
f 164//164 195//195 165//165
f 195//195 196//196 165//165
f 165//165 196//196 197//197
f 165//165 197//197 167//167
f 197//197 198//198 167//167
f 167//167 198//198 199//199
f 167//167 199//199 166//166
f 199//199 200//200 166//166
f 166//166 200//200 201//201
f 166//166 201//201 159//159
f 201//201 202//202 159//159
f 159//159 202//202 203//203
f 159//159 203//203 163//163
f 203//203 204//204 163//163
f 163//163 204//204 205//205
f 163//163 205//205 145//145
f 205//205 206//206 145//145
f 145//145 206//206 207//207
f 145//145 207//207 146//146
f 207//207 208//208 146//146
f 146//146 208//208 209//209
f 146//146 209//209 147//147
f 209//209 210//210 147//147
f 147//147 210//210 211//211
f 147//147 211//211 141//141
f 211//211 212//212 141//141
f 141//141 212//212 213//213
f 141//141 213//213 122//122
f 213//213 214//214 122//122
f 122//122 214//214 215//215
f 122//122 215//215 123//123
f 123//123 215//215 216//216
f 123//123 216//216 148//148
f 216//216 217//217 148//148
f 148//148 217//217 218//218
f 148//148 218//218 149//149
f 218//218 219//219 149//149
f 149//149 219//219 220//220
f 149//149 220//220 150//150
f 221//221 161//161 222//222
f 222//222 161//161 150//150
f 222//222 150//150 223//223
f 223//223 150//150 220//220
f 221//221 224//224 161//161
f 161//161 224//224 225//225
f 161//161 225//225 162//162
f 225//225 226//226 162//162
f 162//162 226//226 227//227
f 162//162 227//227 137//137
f 227//227 228//228 137//137
f 137//137 228//228 229//229
f 137//137 229//229 138//138
f 229//229 230//230 138//138
f 138//138 230//230 231//231
f 138//138 231//231 139//139
f 231//231 232//232 139//139
f 139//139 232//232 233//233
f 139//139 233//233 140//140
f 233//233 234//234 140//140
f 140//140 234//234 235//235
f 140//140 235//235 136//136
f 235//235 236//236 136//136
f 136//136 236//236 237//237
f 136//136 237//237 134//134
f 237//237 238//238 134//134
f 134//134 238//238 239//239
f 134//134 239//239 125//125
f 239//239 240//240 125//125
f 125//125 240//240 241//241
f 125//125 241//241 126//126
f 241//241 242//242 126//126
f 126//126 242//242 243//243
f 126//126 243//243 128//128
f 243//243 244//244 128//128
f 128//128 244//244 182//182
f 128//128 182//182 129//129
f 181//181 182//182 245//245
f 245//245 246//246 181//181
f 181//181 246//246 247//247
f 181//181 247//247 180//180
f 180//180 247//247 248//248
f 180//180 248//248 173//173
f 85//85 179//179 78//78
f 78//78 179//179 183//183
f 249//249 132//132 186//186
f 186//186 132//132 156//156
f 250//250 186//186 251//251
f 251//251 186//186 185//185
f 251//251 185//185 252//252
f 252//252 185//185 253//253
f 253//253 185//185 184//184
f 253//253 184//184 254//254
f 254//254 184//184 255//255
f 255//255 184//184 174//174
f 255//255 174//174 187//187
f 97//97 187//187 86//86
f 86//86 187//187 175//175
f 188//188 124//124 256//256
f 256//256 124//124 135//135
f 256//256 135//135 257//257
f 257//257 135//135 127//127
f 257//257 127//127 249//249
f 249//249 127//127 132//132
f 188//188 258//258 259//259
f 260//260 245//245 182//182
f 182//182 244//244 260//260
f 260//260 244//244 243//243
f 260//260 243//243 261//261
f 261//261 243//243 242//242
f 261//261 242//242 262//262
f 242//242 241//241 262//262
f 262//262 241//241 240//240
f 262//262 240//240 263//263
f 240//240 239//239 263//263
f 263//263 239//239 238//238
f 263//263 238//238 264//264
f 238//238 237//237 264//264
f 264//264 237//237 236//236
f 264//264 236//236 265//265
f 236//236 235//235 265//265
f 265//265 235//235 234//234
f 265//265 234//234 266//266
f 234//234 233//233 266//266
f 266//266 233//233 232//232
f 266//266 232//232 267//267
f 232//232 231//231 267//267
f 267//267 231//231 230//230
f 267//267 230//230 268//268
f 230//230 229//229 268//268
f 268//268 229//229 228//228
f 268//268 228//228 269//269
f 228//228 227//227 269//269
f 269//269 227//227 226//226
f 269//269 226//226 270//270
f 270//270 226//226 225//225
f 270//270 225//225 271//271
f 225//225 224//224 271//271
f 271//271 224//224 221//221
f 271//271 221//221 272//272
f 221//221 222//222 272//272
f 272//272 222//222 223//223
f 272//272 223//223 273//273
f 223//223 220//220 273//273
f 273//273 220//220 219//219
f 273//273 219//219 274//274
f 219//219 218//218 274//274
f 274//274 218//218 217//217
f 274//274 217//217 275//275
f 275//275 217//217 216//216
f 275//275 216//216 276//276
f 216//216 215//215 276//276
f 276//276 215//215 214//214
f 276//276 214//214 277//277
f 214//214 213//213 277//277
f 277//277 213//213 278//278
f 277//277 278//278 279//279
f 278//278 211//211 279//279
f 279//279 211//211 210//210
f 279//279 210//210 280//280
f 210//210 209//209 280//280
f 280//280 209//209 208//208
f 280//280 208//208 281//281
f 208//208 207//207 281//281
f 281//281 207//207 206//206
f 281//281 206//206 282//282
f 206//206 205//205 282//282
f 282//282 205//205 204//204
f 282//282 204//204 283//283
f 204//204 203//203 283//283
f 283//283 203//203 202//202
f 283//283 202//202 284//284
f 202//202 201//201 284//284
f 284//284 201//201 285//285
f 284//284 285//285 286//286
f 285//285 199//199 286//286
f 286//286 199//199 198//198
f 286//286 198//198 287//287
f 198//198 197//197 287//287
f 287//287 197//197 196//196
f 287//287 196//196 288//288
f 196//196 195//195 288//288
f 288//288 195//195 194//194
f 288//288 194//194 289//289
f 194//194 193//193 289//289
f 289//289 193//193 192//192
f 289//289 192//192 290//290
f 192//192 191//191 290//290
f 290//290 191//191 190//190
f 290//290 190//190 259//259
f 259//259 190//190 189//189
f 259//259 189//189 188//188
f 291//291 292//292 293//293
f 293//293 292//292 294//294
f 293//293 294//294 295//295
f 295//295 294//294 79//79
f 295//295 79//79 183//183
f 183//183 79//79 296//296
f 186//186 250//250 249//249
f 249//249 250//250 297//297
f 96//96 250//250 251//251
f 96//96 251//251 110//110
f 110//110 251//251 252//252
f 110//110 252//252 111//111
f 252//252 253//253 111//111
f 111//111 253//253 254//254
f 111//111 254//254 112//112
f 254//254 255//255 112//112
f 112//112 255//255 187//187
f 112//112 187//187 97//97
f 298//298 299//299 300//300
f 300//300 299//299 256//256
f 300//300 256//256 301//301
f 301//301 256//256 302//302
f 302//302 256//256 257//257
f 302//302 257//257 303//303
f 303//303 257//257 249//249
f 303//303 249//249 297//297
f 89//89 88//88 304//304
f 304//304 305//305 89//89
f 89//89 305//305 306//306
f 89//89 306//306 90//90
f 90//90 306//306 307//307
f 90//90 307//307 91//91
f 91//91 307//307 308//308
f 91//91 308//308 92//92
f 92//92 308//308 309//309
f 92//92 309//309 75//75
f 75//75 309//309 310//310
f 75//75 310//310 76//76
f 76//76 310//310 311//311
f 76//76 311//311 82//82
f 82//82 311//311 312//312
f 82//82 312//312 83//83
f 83//83 312//312 313//313
f 83//83 313//313 98//98
f 98//98 313//313 314//314
f 98//98 314//314 99//99
f 99//99 314//314 270//270
f 99//99 270//270 100//100
f 270//270 315//315 100//100
f 100//100 315//315 316//316
f 100//100 316//316 104//104
f 104//104 316//316 317//317
f 104//104 317//317 105//105
f 105//105 317//317 318//318
f 105//105 318//318 106//106
f 106//106 318//318 107//107
f 107//107 318//318 275//275
f 107//107 275//275 108//108
f 275//275 319//319 108//108
f 108//108 319//319 320//320
f 108//108 320//320 321//321
f 321//321 320//320 322//322
f 321//321 322//322 93//93
f 93//93 322//322 323//323
f 93//93 323//323 94//94
f 94//94 323//323 324//324
f 94//94 324//324 113//113
f 113//113 324//324 282//282
f 113//113 282//282 114//114
f 114//114 282//282 283//283
f 114//114 283//283 115//115
f 115//115 283//283 284//284
f 115//115 284//284 325//325
f 325//325 284//284 286//286
f 325//325 286//286 117//117
f 117//117 286//286 287//287
f 117//117 287//287 326//326
f 326//326 287//287 327//327
f 326//326 327//327 119//119
f 119//119 327//327 289//289
f 119//119 289//289 120//120
f 120//120 289//289 328//328
f 120//120 328//328 329//329
f 329//329 328//328 330//330
f 329//329 330//330 95//95
f 95//95 330//330 298//298
f 95//95 298//298 84//84
f 80//80 297//297 96//96
f 96//96 297//297 250//250
f 77//77 84//84 298//298
f 298//298 300//300 77//77
f 77//77 300//300 301//301
f 77//77 301//301 81//81
f 297//297 80//80 303//303
f 303//303 80//80 81//81
f 303//303 81//81 302//302
f 302//302 81//81 301//301
# 572 faces, 0 coords texture

# End of File
